<svg xmlns="http://www.w3.org/2000/svg" width="256" height="256" viewBox="0 0 100 100"><path fill="#000000" d="M33.99 61.40L33.99 61.40Q34.74 57.54 29.82 55.42L29.82 55.42L24.21 53.09Q12.42 47.80 13.00 38.67L13.00 38.67Q13.24 34.50 15.87 31.24Q18.50 27.97 23.15 26.16Q27.80 24.35 33.30 24.42L33.30 24.42Q40.69 24.55 45.18 28.72Q49.68 32.89 49.61 39.90L49.61 39.90L37.99 39.90Q38.09 37.03 36.77 35.30Q35.46 33.58 32.45 33.51L32.45 33.51Q29.51 33.44 27.25 34.88Q25.00 36.31 24.59 38.74L24.59 38.74Q23.94 42.16 29.66 44.34Q35.39 46.53 37.99 48.10L37.99 48.10Q46.16 52.99 45.64 61.30L45.64 61.30Q45.37 65.60 42.87 68.85Q40.38 72.10 35.95 73.87Q31.53 75.65 26.02 75.58L26.02 75.58Q21.99 75.52 18.54 74.32Q15.09 73.12 12.62 70.83L12.62 70.83Q7.63 66.22 7.84 58.70L7.84 58.70L19.56 58.73Q19.36 62.56 21.03 64.53Q22.71 66.49 26.67 66.49L26.67 66.49Q29.61 66.49 31.58 65.14Q33.54 63.79 33.99 61.40ZM69.47 74.87L49.50 74.87L58.12 25.10L73.94 25.13Q83.31 25.17 87.92 28.69Q92.54 32.21 92.13 38.57L92.13 38.57Q91.61 46.43 83.51 49.71L83.51 49.71Q86.42 50.73 88.04 53.42Q89.67 56.10 89.43 59.86L89.43 59.86Q88.95 67.07 83.74 70.97Q78.52 74.87 69.47 74.87L69.47 74.87ZM73.50 53.74L64.89 53.71L62.80 65.64L69.81 65.67Q73.09 65.67 75.28 64.05Q77.46 62.42 77.87 59.72L77.87 59.72Q78.83 54.02 73.50 53.74L73.50 53.74ZM68.24 34.36L66.22 45.85L71.72 45.88Q79.34 45.71 80.27 40.04L80.27 40.04Q81.09 34.43 74.46 34.40L74.46 34.40L68.24 34.36Z"></path></svg>